<svg width="118" height="103" viewBox="0 0 118 103" fill="none" xmlns="http://www.w3.org/2000/svg">
<path d="M2.25 8.08215H10.5156C12.2448 8.08215 13.7292 8.34257 14.9688 8.8634C16.2083 9.38424 17.1615 10.1551 17.8281 11.1759C18.4948 12.1967 18.8281 13.4519 18.8281 14.9415C18.8281 16.1186 18.6198 17.1394 18.2031 18.004C17.7865 18.8686 17.1979 19.5926 16.4375 20.1759C15.6875 20.7592 14.8021 21.2176 13.7812 21.5509L12.4375 22.2384H5.14062L5.10938 18.8478H10.5625C11.4479 18.8478 12.1823 18.6915 12.7656 18.379C13.349 18.0665 13.7865 17.6342 14.0781 17.0822C14.3802 16.5301 14.5312 15.8999 14.5312 15.1915C14.5312 14.4311 14.3854 13.7749 14.0938 13.2228C13.8021 12.6603 13.3594 12.228 12.7656 11.9259C12.1719 11.6238 11.4219 11.4728 10.5156 11.4728H6.54688V30.8322H2.25V8.08215ZM15.0938 30.8322L9.82812 20.6447L14.375 20.629L19.7031 30.6134V30.8322H15.0938ZM29.875 31.1447C28.5938 31.1447 27.4427 30.9363 26.4219 30.5197C25.401 30.103 24.5312 29.5249 23.8125 28.7853C23.1042 28.0353 22.5573 27.1655 22.1719 26.1759C21.7969 25.1759 21.6094 24.103 21.6094 22.9572V22.3322C21.6094 21.0301 21.7969 19.8478 22.1719 18.7853C22.5469 17.7124 23.0781 16.7905 23.7656 16.0197C24.4531 15.2488 25.276 14.6551 26.2344 14.2384C27.1927 13.8217 28.25 13.6134 29.4062 13.6134C30.6042 13.6134 31.6615 13.8165 32.5781 14.2228C33.4948 14.6186 34.2604 15.1811 34.875 15.9103C35.4896 16.6394 35.9531 17.5144 36.2656 18.5353C36.5781 19.5457 36.7344 20.6655 36.7344 21.8947V23.629H23.4844V20.7853H32.6719V20.4728C32.651 19.8165 32.526 19.2176 32.2969 18.6759C32.0677 18.1238 31.7135 17.6863 31.2344 17.3634C30.7552 17.0301 30.1354 16.8634 29.375 16.8634C28.7604 16.8634 28.224 16.9988 27.7656 17.2697C27.3177 17.5301 26.9427 17.9051 26.6406 18.3947C26.349 18.8738 26.1302 19.4467 25.9844 20.1134C25.8385 20.7801 25.7656 21.5197 25.7656 22.3322V22.9572C25.7656 23.6655 25.8594 24.3217 26.0469 24.9259C26.2448 25.5301 26.5312 26.0561 26.9062 26.504C27.2917 26.9415 27.75 27.2853 28.2812 27.5353C28.8229 27.7749 29.4375 27.8947 30.125 27.8947C30.9896 27.8947 31.7708 27.728 32.4688 27.3947C33.1771 27.0509 33.7917 26.5457 34.3125 25.879L36.3906 28.0353C36.0365 28.5561 35.5573 29.0561 34.9531 29.5353C34.3594 30.0144 33.6406 30.4051 32.7969 30.7072C31.9531 30.9988 30.9792 31.1447 29.875 31.1447ZM49.6406 27.2384V6.83215H53.7969V30.8322H50.0469L49.6406 27.2384ZM38.7812 22.5822V22.254C38.7812 20.9624 38.9271 19.7905 39.2188 18.7384C39.5208 17.6759 39.9583 16.7644 40.5312 16.004C41.1042 15.2436 41.7969 14.6551 42.6094 14.2384C43.4323 13.8217 44.3646 13.6134 45.4062 13.6134C46.4167 13.6134 47.2969 13.8165 48.0469 14.2228C48.8073 14.629 49.4531 15.2072 49.9844 15.9572C50.526 16.7072 50.9583 17.5978 51.2812 18.629C51.6042 19.6499 51.8385 20.7749 51.9844 22.004V22.8947C51.8385 24.0926 51.6042 25.1915 51.2812 26.1915C50.9583 27.1915 50.526 28.0665 49.9844 28.8165C49.4531 29.5561 48.8073 30.129 48.0469 30.5353C47.2865 30.9415 46.3958 31.1447 45.375 31.1447C44.3438 31.1447 43.4167 30.9311 42.5938 30.504C41.7812 30.0769 41.0885 29.478 40.5156 28.7072C39.9531 27.9363 39.5208 27.0301 39.2188 25.9884C38.9271 24.9467 38.7812 23.8113 38.7812 22.5822ZM42.9219 22.254V22.5822C42.9219 23.3113 42.9844 23.9936 43.1094 24.629C43.2344 25.2644 43.4375 25.8269 43.7188 26.3165C44 26.7957 44.3594 27.1707 44.7969 27.4415C45.2448 27.7124 45.7865 27.8478 46.4219 27.8478C47.2344 27.8478 47.901 27.6707 48.4219 27.3165C48.9531 26.9519 49.3646 26.4572 49.6562 25.8322C49.9479 25.1967 50.1354 24.4832 50.2188 23.6915V21.2384C50.1771 20.6134 50.0677 20.0353 49.8906 19.504C49.724 18.9728 49.4844 18.5144 49.1719 18.129C48.8698 17.7436 48.4948 17.4415 48.0469 17.2228C47.599 17.004 47.0677 16.8947 46.4531 16.8947C45.8177 16.8947 45.276 17.0353 44.8281 17.3165C44.3802 17.5874 44.0156 17.9676 43.7344 18.4572C43.4531 18.9467 43.2448 19.5144 43.1094 20.1603C42.9844 20.8061 42.9219 21.504 42.9219 22.254ZM65.125 31.1447C63.8438 31.1447 62.6927 30.9363 61.6719 30.5197C60.651 30.103 59.7812 29.5249 59.0625 28.7853C58.3542 28.0353 57.8073 27.1655 57.4219 26.1759C57.0469 25.1759 56.8594 24.103 56.8594 22.9572V22.3322C56.8594 21.0301 57.0469 19.8478 57.4219 18.7853C57.7969 17.7124 58.3281 16.7905 59.0156 16.0197C59.7031 15.2488 60.526 14.6551 61.4844 14.2384C62.4427 13.8217 63.5 13.6134 64.6562 13.6134C65.8542 13.6134 66.9115 13.8165 67.8281 14.2228C68.7448 14.6186 69.5104 15.1811 70.125 15.9103C70.7396 16.6394 71.2031 17.5144 71.5156 18.5353C71.8281 19.5457 71.9844 20.6655 71.9844 21.8947V23.629H58.7344V20.7853H67.9219V20.4728C67.901 19.8165 67.776 19.2176 67.5469 18.6759C67.3177 18.1238 66.9635 17.6863 66.4844 17.3634C66.0052 17.0301 65.3854 16.8634 64.625 16.8634C64.0104 16.8634 63.474 16.9988 63.0156 17.2697C62.5677 17.5301 62.1927 17.9051 61.8906 18.3947C61.599 18.8738 61.3802 19.4467 61.2344 20.1134C61.0885 20.7801 61.0156 21.5197 61.0156 22.3322V22.9572C61.0156 23.6655 61.1094 24.3217 61.2969 24.9259C61.4948 25.5301 61.7812 26.0561 62.1562 26.504C62.5417 26.9415 63 27.2853 63.5312 27.5353C64.0729 27.7749 64.6875 27.8947 65.375 27.8947C66.2396 27.8947 67.0208 27.728 67.7188 27.3947C68.4271 27.0509 69.0417 26.5457 69.5625 25.879L71.6406 28.0353C71.2865 28.5561 70.8073 29.0561 70.2031 29.5353C69.6094 30.0144 68.8906 30.4051 68.0469 30.7072C67.2031 30.9988 66.2292 31.1447 65.125 31.1447ZM82.3438 31.1447C81.0625 31.1447 79.9115 30.9363 78.8906 30.5197C77.8698 30.103 77 29.5249 76.2812 28.7853C75.5729 28.0353 75.026 27.1655 74.6406 26.1759C74.2656 25.1759 74.0781 24.103 74.0781 22.9572V22.3322C74.0781 21.0301 74.2656 19.8478 74.6406 18.7853C75.0156 17.7124 75.5469 16.7905 76.2344 16.0197C76.9219 15.2488 77.7448 14.6551 78.7031 14.2384C79.6615 13.8217 80.7188 13.6134 81.875 13.6134C83.0729 13.6134 84.1302 13.8165 85.0469 14.2228C85.9635 14.6186 86.7292 15.1811 87.3438 15.9103C87.9583 16.6394 88.4219 17.5144 88.7344 18.5353C89.0469 19.5457 89.2031 20.6655 89.2031 21.8947V23.629H75.9531V20.7853H85.1406V20.4728C85.1198 19.8165 84.9948 19.2176 84.7656 18.6759C84.5365 18.1238 84.1823 17.6863 83.7031 17.3634C83.224 17.0301 82.6042 16.8634 81.8438 16.8634C81.2292 16.8634 80.6927 16.9988 80.2344 17.2697C79.7865 17.5301 79.4115 17.9051 79.1094 18.3947C78.8177 18.8738 78.599 19.4467 78.4531 20.1134C78.3073 20.7801 78.2344 21.5197 78.2344 22.3322V22.9572C78.2344 23.6655 78.3281 24.3217 78.5156 24.9259C78.7135 25.5301 79 26.0561 79.375 26.504C79.7604 26.9415 80.2188 27.2853 80.75 27.5353C81.2917 27.7749 81.9062 27.8947 82.5938 27.8947C83.4583 27.8947 84.2396 27.728 84.9375 27.3947C85.6458 27.0509 86.2604 26.5457 86.7812 25.879L88.8594 28.0353C88.5052 28.5561 88.026 29.0561 87.4219 29.5353C86.8281 30.0144 86.1094 30.4051 85.2656 30.7072C84.4219 30.9988 83.4479 31.1447 82.3438 31.1447ZM96.0781 17.3947V30.8322H91.9531V13.9259H95.8438L96.0781 17.3947ZM95.4688 21.7697H94.2031C94.2031 20.5926 94.3438 19.5092 94.625 18.5197C94.9167 17.5301 95.3438 16.6707 95.9062 15.9415C96.4688 15.2019 97.1615 14.629 97.9844 14.2228C98.8177 13.8165 99.7812 13.6134 100.875 13.6134C101.635 13.6134 102.333 13.728 102.969 13.9572C103.604 14.1759 104.151 14.5249 104.609 15.004C105.078 15.4728 105.438 16.0874 105.688 16.8478C105.938 17.5978 106.062 18.4988 106.062 19.5509V30.8322H101.938V19.9728C101.938 19.1811 101.823 18.5613 101.594 18.1134C101.375 17.6655 101.057 17.353 100.641 17.1759C100.224 16.9884 99.724 16.8947 99.1406 16.8947C98.4948 16.8947 97.9375 17.0249 97.4688 17.2853C97.0104 17.5353 96.6302 17.8842 96.3281 18.3322C96.0365 18.7801 95.8177 19.2957 95.6719 19.879C95.5365 20.4624 95.4688 21.0926 95.4688 21.7697ZM105.75 21.004L104.047 21.3165C104.057 20.254 104.203 19.2592 104.484 18.3322C104.766 17.3947 105.177 16.5769 105.719 15.879C106.271 15.1707 106.953 14.6186 107.766 14.2228C108.589 13.8165 109.536 13.6134 110.609 13.6134C111.443 13.6134 112.193 13.7332 112.859 13.9728C113.536 14.2019 114.115 14.5717 114.594 15.0822C115.073 15.5822 115.438 16.2332 115.688 17.0353C115.948 17.8374 116.078 18.8165 116.078 19.9728V30.8322H111.922V19.9572C111.922 19.1342 111.807 18.504 111.578 18.0665C111.359 17.629 111.042 17.3269 110.625 17.1603C110.208 16.9832 109.719 16.8947 109.156 16.8947C108.583 16.8947 108.083 17.004 107.656 17.2228C107.24 17.4311 106.885 17.7228 106.594 18.0978C106.312 18.4728 106.099 18.9103 105.953 19.4103C105.818 19.8999 105.75 20.4311 105.75 21.004Z" fill="white" fill-opacity="0.8"/>
<path d="M61.625 83.625H56.925C53.6 83.625 50.875 80.825 50.875 77.375C50.875 76.35 51.725 75.5 52.75 75.5C53.775 75.5 54.625 76.35 54.625 77.375C54.625 78.75 55.65 79.875 56.925 79.875H61.625C62.6 79.875 63.375 79 63.375 77.925C63.375 76.575 63 76.375 62.15 76.075L54.625 73.4499C53.025 72.8999 50.875 71.725 50.875 68.05C50.875 64.925 53.35 62.35 56.375 62.35H61.075C64.4 62.35 67.125 65.15 67.125 68.6C67.125 69.625 66.275 70.475 65.25 70.475C64.225 70.475 63.375 69.625 63.375 68.6C63.375 67.225 62.35 66.1 61.075 66.1H56.375C55.4 66.1 54.625 66.975 54.625 68.05C54.625 69.4 55 69.5999 55.85 69.8999L63.375 72.525C64.975 73.075 67.125 74.25 67.125 77.925C67.125 81.075 64.65 83.625 61.625 83.625Z" fill="white" fill-opacity="0.6"/>
<path d="M59 86.125C57.975 86.125 57.125 85.275 57.125 84.25V61.75C57.125 60.725 57.975 59.875 59 59.875C60.025 59.875 60.875 60.725 60.875 61.75V84.25C60.875 85.275 60.025 86.125 59 86.125Z" fill="white" fill-opacity="0.6"/>
<path d="M59 99.875C44.175 99.875 32.125 87.825 32.125 73C32.125 58.175 44.175 46.125 59 46.125C60.025 46.125 60.875 46.975 60.875 48C60.875 49.025 60.025 49.875 59 49.875C46.25 49.875 35.875 60.25 35.875 73C35.875 85.75 46.25 96.125 59 96.125C71.75 96.125 82.125 85.75 82.125 73C82.125 71.975 82.975 71.125 84 71.125C85.025 71.125 85.875 71.975 85.875 73C85.875 87.825 73.825 99.875 59 99.875Z" fill="white" fill-opacity="0.6"/>
<path d="M81.5 62.375H71.5C70.475 62.375 69.625 61.525 69.625 60.5V50.5C69.625 49.475 70.475 48.625 71.5 48.625C72.525 48.625 73.375 49.475 73.375 50.5V58.625H81.5C82.525 58.625 83.375 59.475 83.375 60.5C83.375 61.525 82.525 62.375 81.5 62.375Z" fill="white" fill-opacity="0.6"/>
<path d="M71.4999 62.375C71.0249 62.375 70.5499 62.2 70.1749 61.825C69.4499 61.1 69.4499 59.9 70.1749 59.175L82.6749 46.675C83.3999 45.95 84.5998 45.95 85.3248 46.675C86.0498 47.4 86.0498 48.6 85.3248 49.325L72.8248 61.825C72.4498 62.2 71.9749 62.375 71.4999 62.375Z" fill="white" fill-opacity="0.6"/>
</svg>
