<svg width="194" height="65" viewBox="0 0 194 65" fill="none" xmlns="http://www.w3.org/2000/svg">
<path d="M3.34565 16.352V48H11.2124V16.352H3.34565ZM14.6485 48C18.1147 48 21.1137 47.352 23.6456 46.0559C26.1774 44.7598 28.1366 42.9363 29.5231 40.5853C30.9096 38.2042 31.6028 35.4011 31.6028 32.176C31.6028 28.9208 30.9096 26.1177 29.5231 23.7667C28.1366 21.4157 26.1774 19.5921 23.6456 18.2961C21.1137 17 18.1147 16.352 14.6485 16.352H8.40933V23.1337H14.3772C15.5829 23.1337 16.7433 23.2844 17.8585 23.5858C19.0039 23.8872 19.9985 24.3846 20.8425 25.0778C21.7166 25.771 22.4098 26.7054 22.9222 27.8809C23.4346 29.0263 23.6908 30.458 23.6908 32.176C23.6908 33.894 23.4346 35.3408 22.9222 36.5163C22.4098 37.6617 21.7166 38.581 20.8425 39.2742C19.9985 39.9674 19.0039 40.4648 17.8585 40.7662C16.7433 41.0676 15.5829 41.2183 14.3772 41.2183H8.40933V48H14.6485ZM41.5673 48H57.527V41.7156H41.5673V48ZM41.5673 22.6364H57.527V16.352H41.5673V22.6364ZM41.5673 34.4366H56.6227V28.2878H41.5673V34.4366ZM36.5036 16.352V48H43.8279V16.352H36.5036Z" fill="#CDDADB"/>
<path d="M108.328 48H124.287V41.7156H108.328V48ZM108.328 22.6364H124.287V16.352H108.328V22.6364ZM108.328 34.4366H123.383V28.2878H108.328V34.4366ZM103.264 16.352V48H110.588V16.352H103.264ZM138.418 33.668L147.279 48H156.231L146.33 33.668H138.418ZM130.506 16.352V48H138.146V16.352H130.506ZM135.298 22.8172H141.492C142.517 22.8172 143.391 22.983 144.114 23.3146C144.868 23.6461 145.441 24.1284 145.832 24.7613C146.224 25.3641 146.42 26.1026 146.42 26.9767C146.42 27.8508 146.224 28.6043 145.832 29.2373C145.441 29.8401 144.868 30.3073 144.114 30.6388C143.391 30.9402 142.517 31.0909 141.492 31.0909H135.298V37.0136H142.035C144.747 37.0136 147.008 36.5766 148.816 35.7025C150.625 34.8284 151.996 33.6228 152.931 32.0856C153.865 30.5182 154.332 28.7249 154.332 26.7054C154.332 24.6558 153.865 22.8624 152.931 21.3253C151.996 19.7579 150.625 18.5372 148.816 17.6631C147.008 16.789 144.747 16.352 142.035 16.352H135.298V22.8172ZM166.063 32.176C166.063 30.3073 166.424 28.6646 167.148 27.2479C167.901 25.8012 168.941 24.6709 170.267 23.8571C171.624 23.0433 173.206 22.6364 175.015 22.6364C176.853 22.6364 178.436 23.0433 179.762 23.8571C181.088 24.6709 182.113 25.8012 182.836 27.2479C183.56 28.6646 183.921 30.3073 183.921 32.176C183.921 34.0447 183.544 35.7025 182.791 37.1493C182.068 38.5659 181.028 39.6811 179.671 40.4949C178.345 41.3087 176.793 41.7156 175.015 41.7156C173.206 41.7156 171.624 41.3087 170.267 40.4949C168.941 39.6811 167.901 38.5659 167.148 37.1493C166.424 35.7025 166.063 34.0447 166.063 32.176ZM157.97 32.176C157.97 34.6174 158.377 36.8629 159.191 38.9125C160.035 40.9621 161.21 42.7404 162.717 44.2475C164.254 45.7545 166.063 46.93 168.142 47.7739C170.222 48.5877 172.513 48.9947 175.015 48.9947C177.486 48.9947 179.762 48.5877 181.842 47.7739C183.921 46.93 185.715 45.7545 187.222 44.2475C188.759 42.7404 189.934 40.9621 190.748 38.9125C191.592 36.8629 192.014 34.6174 192.014 32.176C192.014 29.7346 191.592 27.5041 190.748 25.4847C189.904 23.4653 188.714 21.7171 187.176 20.2402C185.639 18.7633 183.831 17.633 181.751 16.8493C179.702 16.0355 177.456 15.6286 175.015 15.6286C172.603 15.6286 170.358 16.0355 168.278 16.8493C166.198 17.633 164.39 18.7633 162.853 20.2402C161.316 21.7171 160.11 23.4653 159.236 25.4847C158.392 27.5041 157.97 29.7346 157.97 32.176Z" fill="#CDDADB"/>
<path d="M5.65108 60.2819V56.5143H65.933V15.0705L86.6549 33.9086V7.53524H190.264V11.3029H94.1901V50.8629L73.4682 32.0248V60.2819H5.65108Z" fill="url(#paint0_radial_134_1150)"/>
<defs>
<radialGradient id="paint0_radial_134_1150" cx="0" cy="0" r="1" gradientUnits="userSpaceOnUse" gradientTransform="translate(97.016 33.9086) rotate(90) scale(26.3733 93.2484)">
<stop stop-color="#01756B"/>
<stop offset="0.5" stop-color="#0B7A85"/>
<stop offset="1" stop-color="#015F85"/>
</radialGradient>
</defs>
</svg>
