<svg width="65" height="103" viewBox="0 0 65 103" fill="none" xmlns="http://www.w3.org/2000/svg">
<path d="M4.07812 7.91431H7.79688L14.0156 25.0393L20.2188 7.91431H23.9531L15.5 30.6643H12.5156L4.07812 7.91431ZM2.20312 7.91431H5.84375L6.5 23.6487V30.6643H2.20312V7.91431ZM22.1719 7.91431H25.8281V30.6643H21.5312V23.6487L22.1719 7.91431ZM34.2656 13.7581V30.6643H30.125V13.7581H34.2656ZM29.8438 9.33618C29.8438 8.7216 30.0521 8.21118 30.4688 7.80493C30.8958 7.39868 31.4688 7.19556 32.1875 7.19556C32.9062 7.19556 33.474 7.39868 33.8906 7.80493C34.3177 8.21118 34.5312 8.7216 34.5312 9.33618C34.5312 9.94035 34.3177 10.4456 33.8906 10.8518C33.474 11.2581 32.9062 11.4612 32.1875 11.4612C31.4688 11.4612 30.8958 11.2581 30.4688 10.8518C30.0521 10.4456 29.8438 9.94035 29.8438 9.33618ZM42.25 17.3674V30.6643H38.125V13.7581H42L42.25 17.3674ZM41.5938 21.6018H40.375C40.3854 20.3726 40.5521 19.2581 40.875 18.2581C41.1979 17.2581 41.651 16.3987 42.2344 15.6799C42.8281 14.9612 43.5312 14.4091 44.3438 14.0237C45.1562 13.6383 46.0625 13.4456 47.0625 13.4456C47.875 13.4456 48.6094 13.5601 49.2656 13.7893C49.9219 14.0185 50.4844 14.3831 50.9531 14.8831C51.4323 15.3831 51.7969 16.0393 52.0469 16.8518C52.3073 17.6539 52.4375 18.6435 52.4375 19.8206V30.6643H48.2812V19.7893C48.2812 19.0185 48.1667 18.4091 47.9375 17.9612C47.7188 17.5133 47.3958 17.1956 46.9688 17.0081C46.5521 16.8206 46.0365 16.7268 45.4219 16.7268C44.7865 16.7268 44.2292 16.857 43.75 17.1174C43.2812 17.3674 42.8854 17.7164 42.5625 18.1643C42.25 18.6122 42.0104 19.1278 41.8438 19.7112C41.6771 20.2945 41.5938 20.9247 41.5938 21.6018ZM64.0781 13.7581V16.7268H54.3906V13.7581H64.0781ZM56.9844 9.60181H61.125V25.7893C61.125 26.2893 61.1927 26.6747 61.3281 26.9456C61.4635 27.2164 61.6667 27.3987 61.9375 27.4924C62.2083 27.5862 62.5312 27.6331 62.9062 27.6331C63.1771 27.6331 63.4271 27.6174 63.6562 27.5862C63.8854 27.5549 64.0781 27.5237 64.2344 27.4924L64.25 30.5862C63.9062 30.7008 63.5156 30.7945 63.0781 30.8674C62.651 30.9403 62.1667 30.9768 61.625 30.9768C60.6979 30.9768 59.8854 30.8206 59.1875 30.5081C58.4896 30.1851 57.9479 29.6695 57.5625 28.9612C57.1771 28.2424 56.9844 27.2945 56.9844 26.1174V9.60181Z" fill="white" fill-opacity="0.8"/>
<path d="M34.625 83.625H29.925C26.6 83.625 23.875 80.825 23.875 77.375C23.875 76.35 24.725 75.5 25.75 75.5C26.775 75.5 27.625 76.35 27.625 77.375C27.625 78.75 28.65 79.875 29.925 79.875H34.625C35.6 79.875 36.375 79 36.375 77.925C36.375 76.575 36 76.375 35.15 76.075L27.625 73.4499C26.025 72.8749 23.875 71.725 23.875 68.05C23.875 64.925 26.35 62.35 29.375 62.35H34.075C37.4 62.35 40.125 65.15 40.125 68.6C40.125 69.625 39.275 70.475 38.25 70.475C37.225 70.475 36.375 69.625 36.375 68.6C36.375 67.225 35.35 66.1 34.075 66.1H29.375C28.4 66.1 27.625 66.975 27.625 68.05C27.625 69.4 28 69.5999 28.85 69.8999L36.375 72.525C37.975 73.1 40.125 74.25 40.125 77.925C40.125 81.075 37.65 83.625 34.625 83.625Z" fill="white" fill-opacity="0.6"/>
<path d="M32 86.125C30.975 86.125 30.125 85.275 30.125 84.25V61.75C30.125 60.725 30.975 59.875 32 59.875C33.025 59.875 33.875 60.725 33.875 61.75V84.25C33.875 85.275 33.025 86.125 32 86.125Z" fill="white" fill-opacity="0.6"/>
<path d="M32 99.875C17.175 99.875 5.125 87.825 5.125 73C5.125 58.175 17.175 46.125 32 46.125C33.025 46.125 33.875 46.975 33.875 48C33.875 49.025 33.025 49.875 32 49.875C19.25 49.875 8.875 60.25 8.875 73C8.875 85.75 19.25 96.125 32 96.125C44.75 96.125 55.125 85.75 55.125 73C55.125 71.975 55.975 71.125 57 71.125C58.025 71.125 58.875 71.975 58.875 73C58.875 87.825 46.825 99.875 32 99.875Z" fill="white" fill-opacity="0.6"/>
<path d="M57 59.875C55.975 59.875 55.125 59.025 55.125 58V49.875H47C45.975 49.875 45.125 49.025 45.125 48C45.125 46.975 45.975 46.125 47 46.125H57C58.025 46.125 58.875 46.975 58.875 48V58C58.875 59.025 58.025 59.875 57 59.875Z" fill="white" fill-opacity="0.6"/>
<path d="M44.4999 62.375C44.0249 62.375 43.5499 62.2 43.1749 61.825C42.4499 61.1 42.4499 59.9 43.1749 59.175L55.6749 46.675C56.3999 45.95 57.5998 45.95 58.3248 46.675C59.0498 47.4 59.0498 48.6 58.3248 49.325L45.8248 61.825C45.4498 62.2 44.9749 62.375 44.4999 62.375Z" fill="white" fill-opacity="0.6"/>
</svg>
