<svg width="79" height="102" viewBox="0 0 79 102" fill="none" xmlns="http://www.w3.org/2000/svg">
<path d="M14.4062 24.0938C14.4062 23.6562 14.3385 23.2656 14.2031 22.9219C14.0781 22.5677 13.8438 22.25 13.5 21.9688C13.1667 21.6771 12.6927 21.3958 12.0781 21.125C11.474 20.8438 10.6927 20.5521 9.73438 20.25C8.67188 19.9167 7.68229 19.5417 6.76562 19.125C5.84896 18.7083 5.04167 18.224 4.34375 17.6719C3.65625 17.1198 3.11979 16.4844 2.73438 15.7656C2.34896 15.0365 2.15625 14.1927 2.15625 13.2344C2.15625 12.2969 2.35417 11.4427 2.75 10.6719C3.15625 9.90104 3.72917 9.23958 4.46875 8.6875C5.20833 8.125 6.07812 7.69271 7.07812 7.39062C8.08854 7.08854 9.20312 6.9375 10.4219 6.9375C12.1094 6.9375 13.5677 7.24479 14.7969 7.85938C16.0365 8.47396 16.9948 9.30729 17.6719 10.3594C18.349 11.4115 18.6875 12.5938 18.6875 13.9062H14.4062C14.4062 13.1979 14.2552 12.5729 13.9531 12.0312C13.6615 11.4896 13.2135 11.0625 12.6094 10.75C12.0156 10.4375 11.2656 10.2812 10.3594 10.2812C9.48438 10.2812 8.75521 10.4115 8.17188 10.6719C7.59896 10.9323 7.16667 11.2865 6.875 11.7344C6.59375 12.1823 6.45312 12.6823 6.45312 13.2344C6.45312 13.651 6.55208 14.026 6.75 14.3594C6.94792 14.6823 7.24479 14.9896 7.64062 15.2812C8.03646 15.5625 8.52604 15.8281 9.10938 16.0781C9.70312 16.3177 10.3906 16.5573 11.1719 16.7969C12.4219 17.1719 13.5156 17.5885 14.4531 18.0469C15.401 18.5052 16.1875 19.026 16.8125 19.6094C17.4479 20.1927 17.9219 20.849 18.2344 21.5781C18.5573 22.3073 18.7188 23.1354 18.7188 24.0625C18.7188 25.0417 18.526 25.9167 18.1406 26.6875C17.7552 27.4583 17.2031 28.1146 16.4844 28.6562C15.7656 29.1979 14.901 29.6094 13.8906 29.8906C12.8906 30.1719 11.7708 30.3125 10.5312 30.3125C9.42708 30.3125 8.33333 30.1667 7.25 29.875C6.17708 29.5729 5.20312 29.125 4.32812 28.5312C3.45312 27.9271 2.75521 27.1667 2.23438 26.25C1.71354 25.3229 1.45312 24.2396 1.45312 23H5.76562C5.76562 23.7188 5.88021 24.3333 6.10938 24.8438C6.34896 25.3438 6.68229 25.7552 7.10938 26.0781C7.54688 26.3906 8.05729 26.6198 8.64062 26.7656C9.22396 26.9115 9.85417 26.9844 10.5312 26.9844C11.4062 26.9844 12.125 26.8646 12.6875 26.625C13.2604 26.375 13.6875 26.0312 13.9688 25.5938C14.2604 25.1562 14.4062 24.6562 14.4062 24.0938ZM26.4219 25.9375L30.125 13.0938H32.75L31.9688 17.5312L28.2344 30H25.9688L26.4219 25.9375ZM24.375 13.0938L27.1562 25.9688L27.4062 30H24.7969L20.3594 13.0938H24.375ZM36.1875 25.7812L38.9062 13.0938H42.9062L38.5 30H35.8906L36.1875 25.7812ZM33.1562 13.0938L36.8281 25.8125L37.3125 30H35.0469L31.2812 17.5312L30.5156 13.0938H33.1562ZM54.6562 26.4062V18.6094C54.6562 18.0365 54.5573 17.5417 54.3594 17.125C54.1615 16.7083 53.8594 16.3854 53.4531 16.1562C53.0469 15.9271 52.5312 15.8125 51.9062 15.8125C51.3542 15.8125 50.8698 15.9062 50.4531 16.0938C50.0469 16.2812 49.7344 16.5469 49.5156 16.8906C49.2969 17.224 49.1875 17.6094 49.1875 18.0469H45.0469C45.0469 17.349 45.2135 16.6875 45.5469 16.0625C45.8802 15.4271 46.3542 14.8646 46.9688 14.375C47.5938 13.875 48.3385 13.4844 49.2031 13.2031C50.0781 12.9219 51.0573 12.7812 52.1406 12.7812C53.4219 12.7812 54.5625 13 55.5625 13.4375C56.5729 13.8646 57.3646 14.5104 57.9375 15.375C58.5208 16.2396 58.8125 17.3281 58.8125 18.6406V26.0156C58.8125 26.8594 58.8646 27.5833 58.9688 28.1875C59.0833 28.7812 59.25 29.2969 59.4688 29.7344V30H55.2656C55.0677 29.5729 54.9167 29.0312 54.8125 28.375C54.7083 27.7083 54.6562 27.0521 54.6562 26.4062ZM55.2344 19.7031L55.2656 22.1562H52.6562C52.0104 22.1562 51.4427 22.224 50.9531 22.3594C50.4635 22.4844 50.0625 22.6719 49.75 22.9219C49.4375 23.1615 49.2031 23.4531 49.0469 23.7969C48.8906 24.1302 48.8125 24.5104 48.8125 24.9375C48.8125 25.3542 48.9062 25.7292 49.0938 26.0625C49.2917 26.3958 49.5729 26.6615 49.9375 26.8594C50.3125 27.0469 50.75 27.1406 51.25 27.1406C51.9792 27.1406 52.6146 26.9948 53.1562 26.7031C53.6979 26.401 54.1198 26.0365 54.4219 25.6094C54.724 25.1823 54.8854 24.776 54.9062 24.3906L56.0938 26.1719C55.9479 26.599 55.7292 27.0521 55.4375 27.5312C55.1458 28.0104 54.7708 28.4583 54.3125 28.875C53.8542 29.2917 53.3021 29.6354 52.6562 29.9062C52.0104 30.1771 51.2604 30.3125 50.4062 30.3125C49.3125 30.3125 48.3333 30.0938 47.4688 29.6562C46.6042 29.2188 45.9219 28.6198 45.4219 27.8594C44.9219 27.099 44.6719 26.2344 44.6719 25.2656C44.6719 24.3698 44.8385 23.5781 45.1719 22.8906C45.5052 22.2031 46 21.625 46.6562 21.1562C47.3125 20.6771 48.125 20.3177 49.0938 20.0781C50.0729 19.8281 51.1927 19.7031 52.4531 19.7031H55.2344ZM66.6562 16.3438V36.5H62.5156V13.0938H66.3438L66.6562 16.3438ZM77.5156 21.375V21.7031C77.5156 22.9323 77.3698 24.0729 77.0781 25.125C76.7969 26.1667 76.3802 27.0781 75.8281 27.8594C75.276 28.6302 74.5885 29.2344 73.7656 29.6719C72.9531 30.099 72.0156 30.3125 70.9531 30.3125C69.9115 30.3125 69.0052 30.1146 68.2344 29.7188C67.4635 29.3125 66.8125 28.7396 66.2812 28C65.75 27.2604 65.3229 26.401 65 25.4219C64.6875 24.4323 64.4531 23.3542 64.2969 22.1875V21.1406C64.4531 19.901 64.6875 18.776 65 17.7656C65.3229 16.7448 65.75 15.8646 66.2812 15.125C66.8125 14.375 67.4583 13.7969 68.2188 13.3906C68.9896 12.9844 69.8906 12.7812 70.9219 12.7812C71.9948 12.7812 72.9375 12.9844 73.75 13.3906C74.5729 13.7969 75.2656 14.3802 75.8281 15.1406C76.3906 15.901 76.8125 16.8073 77.0938 17.8594C77.375 18.9115 77.5156 20.0833 77.5156 21.375ZM73.375 21.7031V21.375C73.375 20.625 73.3073 19.9323 73.1719 19.2969C73.0365 18.651 72.8281 18.0885 72.5469 17.6094C72.2656 17.1198 71.901 16.7396 71.4531 16.4688C71.0052 16.1979 70.4635 16.0625 69.8281 16.0625C69.1927 16.0625 68.6458 16.1667 68.1875 16.375C67.7292 16.5833 67.3542 16.8802 67.0625 17.2656C66.7708 17.651 66.5417 18.1094 66.375 18.6406C66.2188 19.1615 66.1146 19.7396 66.0625 20.375V22.9688C66.1562 23.7396 66.3385 24.4323 66.6094 25.0469C66.8802 25.6615 67.276 26.151 67.7969 26.5156C68.3281 26.8802 69.0156 27.0625 69.8594 27.0625C70.4948 27.0625 71.0365 26.9219 71.4844 26.6406C71.9323 26.3594 72.2969 25.974 72.5781 25.4844C72.8594 24.9844 73.0625 24.4115 73.1875 23.7656C73.3125 23.1198 73.375 22.4323 73.375 21.7031Z" fill="white" fill-opacity="0.8"/>
<path d="M46.5 89.5C43.75 89.5 41.3958 88.5208 39.4375 86.5625C37.4792 84.6042 36.5 82.25 36.5 79.5V62C36.5 60.625 36.0108 59.4483 35.0325 58.47C34.0525 57.49 32.875 57 31.5 57C30.125 57 28.9483 57.49 27.97 58.47C26.99 59.4483 26.5 60.625 26.5 62V79.875L28.75 77.625C29.2083 77.1667 29.7817 76.9375 30.47 76.9375C31.1567 76.9375 31.75 77.1875 32.25 77.6875C32.75 78.1875 32.99 78.7917 32.97 79.5C32.9483 80.2083 32.6875 80.8125 32.1875 81.3125L25.75 87.75C25.5 88 25.2292 88.1767 24.9375 88.28C24.6458 88.385 24.3333 88.4375 24 88.4375C23.6667 88.4375 23.3542 88.385 23.0625 88.28C22.7708 88.1767 22.5 88 22.25 87.75L15.75 81.25C15.25 80.75 15 80.1567 15 79.47C15 78.7817 15.25 78.1875 15.75 77.6875C16.25 77.1875 16.8442 76.9375 17.5325 76.9375C18.2192 76.9375 18.8125 77.1875 19.3125 77.6875L21.5 79.875V62C21.5 59.25 22.4792 56.8958 24.4375 54.9375C26.3958 52.9792 28.75 52 31.5 52C34.25 52 36.6042 52.9792 38.5625 54.9375C40.5208 56.8958 41.5 59.25 41.5 62V79.5C41.5 80.875 41.99 82.0525 42.97 83.0325C43.9483 84.0108 45.125 84.5 46.5 84.5C47.875 84.5 49.0525 84.0108 50.0325 83.0325C51.0108 82.0525 51.5 80.875 51.5 79.5V61.625L49.25 63.875C48.7917 64.3333 48.2192 64.5625 47.5325 64.5625C46.8442 64.5625 46.25 64.3125 45.75 63.8125C45.25 63.3125 45.0108 62.7083 45.0325 62C45.0525 61.2917 45.3125 60.6875 45.8125 60.1875L52.25 53.75C52.5 53.5 52.7708 53.3225 53.0625 53.2175C53.3542 53.1142 53.6667 53.0625 54 53.0625C54.3333 53.0625 54.6458 53.1142 54.9375 53.2175C55.2292 53.3225 55.5 53.5 55.75 53.75L62.25 60.25C62.75 60.75 63 61.3433 63 62.03C63 62.7183 62.75 63.3125 62.25 63.8125C61.75 64.3125 61.1558 64.5625 60.4675 64.5625C59.7808 64.5625 59.1875 64.3125 58.6875 63.8125L56.5 61.625V79.5C56.5 82.25 55.5208 84.6042 53.5625 86.5625C51.6042 88.5208 49.25 89.5 46.5 89.5Z" fill="white" fill-opacity="0.6"/>
</svg>
